<svg width="160" height="130" viewBox="0 0 160 130" fill="none" xmlns="http://www.w3.org/2000/svg">
<g clip-path="url(#clip0_168_2202)">
<rect x="7.09717" y="34.1025" width="120" height="90" transform="rotate(-10 7.09717 34.1025)" fill="url(#paint0_linear_168_2202)"/>
<path d="M106.498 62.2698L69.9963 114.4L140.902 101.898L137.777 84.1711L106.498 62.2698Z" fill="url(#paint1_linear_168_2202)"/>
<path d="M51.4684 49.6334L18.2109 97.13L22.7257 122.735L129.085 103.981L51.4684 49.6334Z" fill="url(#paint2_linear_168_2202)"/>
<circle cx="97.754" cy="41.4717" r="8" transform="rotate(-10 97.754 41.4717)" fill="url(#paint3_linear_168_2202)"/>
</g>
<rect x="9.41408" y="35.7249" width="116" height="86" transform="rotate(-10 9.41408 35.7249)" stroke="white" stroke-width="4"/>
<g filter="url(#filter0_d_168_2202)">
<rect x="14" y="23" width="120" height="90" fill="url(#paint4_linear_168_2202)"/>
<rect x="16" y="25" width="116" height="86" stroke="white" stroke-width="4"/>
<path d="M107 68L62 113H134V95L107 68Z" fill="url(#paint5_linear_168_2202)"/>
<path d="M55 46L14 87V113H122L55 46Z" fill="url(#paint6_linear_168_2202)"/>
<circle cx="102" cy="46" r="8" fill="url(#paint7_linear_168_2202)"/>
</g>
<g filter="url(#filter1_d_168_2202)">
<circle cx="129" cy="28" r="20" fill="url(#paint8_linear_168_2202)"/>
<path d="M120 28H138M129 19V37" stroke="white" stroke-width="3"/>
</g>
<defs>
<filter id="filter0_d_168_2202" x="10" y="21" width="128" height="98" filterUnits="userSpaceOnUse" color-interpolation-filters="sRGB">
<feFlood flood-opacity="0" result="BackgroundImageFix"/>
<feColorMatrix in="SourceAlpha" type="matrix" values="0 0 0 0 0 0 0 0 0 0 0 0 0 0 0 0 0 0 127 0" result="hardAlpha"/>
<feOffset dy="2"/>
<feGaussianBlur stdDeviation="2"/>
<feColorMatrix type="matrix" values="0 0 0 0 0 0 0 0 0 0 0 0 0 0 0 0 0 0 0.25 0"/>
<feBlend mode="normal" in2="BackgroundImageFix" result="effect1_dropShadow_168_2202"/>
<feBlend mode="normal" in="SourceGraphic" in2="effect1_dropShadow_168_2202" result="shape"/>
</filter>
<filter id="filter1_d_168_2202" x="105" y="4" width="48" height="48" filterUnits="userSpaceOnUse" color-interpolation-filters="sRGB">
<feFlood flood-opacity="0" result="BackgroundImageFix"/>
<feColorMatrix in="SourceAlpha" type="matrix" values="0 0 0 0 0 0 0 0 0 0 0 0 0 0 0 0 0 0 127 0" result="hardAlpha"/>
<feOffset/>
<feGaussianBlur stdDeviation="2"/>
<feColorMatrix type="matrix" values="0 0 0 0 0 0 0 0 0 0 0 0 0 0 0 0 0 0 0.1 0"/>
<feBlend mode="normal" in2="BackgroundImageFix" result="effect1_dropShadow_168_2202"/>
<feBlend mode="normal" in="SourceGraphic" in2="effect1_dropShadow_168_2202" result="shape"/>
</filter>
<linearGradient id="paint0_linear_168_2202" x1="67.0972" y1="34.1025" x2="67.0972" y2="124.103" gradientUnits="userSpaceOnUse">
<stop stop-color="#EEEEEE"/>
<stop offset="1" stop-color="#DEDEDE"/>
</linearGradient>
<linearGradient id="paint1_linear_168_2202" x1="97.6352" y1="63.8326" x2="105.449" y2="108.149" gradientUnits="userSpaceOnUse">
<stop stop-color="#BBBBBB"/>
<stop offset="1" stop-color="#BBBBBB" stop-opacity="0"/>
</linearGradient>
<linearGradient id="paint2_linear_168_2202" x1="64.2709" y1="47.3759" x2="75.9054" y2="113.358" gradientUnits="userSpaceOnUse">
<stop stop-color="#CCCCCC"/>
<stop offset="1" stop-color="#CCCCCC" stop-opacity="0"/>
</linearGradient>
<linearGradient id="paint3_linear_168_2202" x1="97.754" y1="33.4717" x2="97.754" y2="49.4717" gradientUnits="userSpaceOnUse">
<stop stop-color="#DDDDDD"/>
<stop offset="1" stop-color="#D4D4D4"/>
</linearGradient>
<linearGradient id="paint4_linear_168_2202" x1="74" y1="23" x2="74" y2="113" gradientUnits="userSpaceOnUse">
<stop stop-color="#EEEEEE"/>
<stop offset="1" stop-color="#DEDEDE"/>
</linearGradient>
<linearGradient id="paint5_linear_168_2202" x1="98" y1="68" x2="98" y2="113" gradientUnits="userSpaceOnUse">
<stop stop-color="#BBBBBB"/>
<stop offset="1" stop-color="#BBBBBB" stop-opacity="0"/>
</linearGradient>
<linearGradient id="paint6_linear_168_2202" x1="68" y1="46" x2="68" y2="113" gradientUnits="userSpaceOnUse">
<stop stop-color="#CCCCCC"/>
<stop offset="1" stop-color="#CCCCCC" stop-opacity="0"/>
</linearGradient>
<linearGradient id="paint7_linear_168_2202" x1="102" y1="38" x2="102" y2="54" gradientUnits="userSpaceOnUse">
<stop stop-color="#DDDDDD"/>
<stop offset="1" stop-color="#D4D4D4"/>
</linearGradient>
<linearGradient id="paint8_linear_168_2202" x1="129" y1="8" x2="129" y2="48" gradientUnits="userSpaceOnUse">
<stop stop-color="#23C576"/>
<stop offset="1" stop-color="#14AF64"/>
</linearGradient>
<clipPath id="clip0_168_2202">
<rect x="7.09717" y="34.1025" width="120" height="90" transform="rotate(-10 7.09717 34.1025)" fill="white"/>
</clipPath>
</defs>
</svg>
